<?xml version="1.0" ?><!DOCTYPE svg  PUBLIC '-//W3C//DTD SVG 1.1//EN'  'http://www.w3.org/Graphics/SVG/1.1/DTD/svg11.dtd'><svg aria-label="Discover People" class="_8-yf5 " fill="#262626" height="24" viewBox="0 0 48 48" width="24" xmlSpace="preserve" xmlns="http://www.w3.org/2000/svg" xmlnsSerif="http://www.serif.com/" xmlnsXlink="http://www.w3.org/1999/xlink"><path d="M32 25.5c5.2 0 9.5-4.3 9.5-9.5S37.2 6.5 32 6.5s-9.5 4.3-9.5 9.5 4.3 9.5 9.5 9.5zm0-16c3.6 0 6.5 2.9 6.5 6.5s-2.9 6.5-6.5 6.5-6.5-2.9-6.5-6.5 2.9-6.5 6.5-6.5zm5.5 19h-11c-5.5 0-10 4.5-10 10V40c0 .8.7 1.5 1.5 1.5s1.5-.7 1.5-1.5v-1.5c0-3.9 3.1-7 7-7h11c3.9 0 7 3.1 7 7V40c0 .8.7 1.5 1.5 1.5s1.5-.7 1.5-1.5v-1.5c0-5.5-4.5-10-10-10zm-20-4.5c0-.8-.7-1.5-1.5-1.5h-5.5V17c0-.8-.7-1.5-1.5-1.5s-1.5.7-1.5 1.5v5.5H2c-.8 0-1.5.7-1.5 1.5s.7 1.5 1.5 1.5h5.5V31c0 .8.7 1.5 1.5 1.5s1.5-.7 1.5-1.5v-5.5H16c.8 0 1.5-.7 1.5-1.5z"></path></svg>