<?xml version="1.0" ?><!DOCTYPE svg  PUBLIC '-//W3C//DTD SVG 1.1//EN'  'http://www.w3.org/Graphics/SVG/1.1/DTD/svg11.dtd'><svg aria-label="Search &amp; Explore" class="_8-yf5 " fill="#262626" height="24" viewBox="0 0 48 48" width="24" xmlSpace="preserve" xmlns="http://www.w3.org/2000/svg" xmlnsSerif="http://www.serif.com/" xmlnsXlink="http://www.w3.org/1999/xlink"><path d="M47.6 44L35.8 32.2C38.4 28.9 40 24.6 40 20 40 9 31 0 20 0S0 9 0 20s9 20 20 20c4.6 0 8.9-1.6 12.2-4.2L44 47.6c.6.6 1.5.6 2.1 0l1.4-1.4c.6-.6.6-1.6.1-2.2zM20 35c-8.3 0-15-6.7-15-15S11.7 5 20 5s15 6.7 15 15-6.7 15-15 15z"></path></svg>