<?xml version="1.0" ?><!DOCTYPE svg  PUBLIC '-//W3C//DTD SVG 1.1//EN'  'http://www.w3.org/Graphics/SVG/1.1/DTD/svg11.dtd'><svg aria-label="Find People" class="_8-yf5 " fill="#262626" height="22" viewBox="0 0 48 48" width="22" xml:space="preserve" xmlns="http://www.w3.org/2000/svg" xmlns:serif="http://www.serif.com/" xmlns:xlink="http://www.w3.org/1999/xlink"><path clip-rule="evenodd" d="M24 0C10.8 0 0 10.8 0 24s10.8 24 24 24 24-10.8 24-24S37.2 0 24 0zm12.2 13.8l-7 14.8c-.1.3-.4.6-.7.7l-14.8 7c-.2.1-.4.1-.6.1-.4 0-.8-.2-1.1-.4-.4-.4-.6-1.1-.3-1.7l7-14.8c.1-.3.4-.6.7-.7l14.8-7c.6-.3 1.3-.2 1.7.3.5.4.6 1.1.3 1.7zm-15 7.4l-5 10.5 10.5-5-5.5-5.5z" fill-rule="evenodd"></path></svg>