<?xml version="1.0" ?><!DOCTYPE svg  PUBLIC '-//W3C//DTD SVG 1.1//EN'  'http://www.w3.org/Graphics/SVG/1.1/DTD/svg11.dtd'><svg  fill="#262626" height="22" viewBox="0 0 48 48" width="22" xml:space="preserve" xmlns="http://www.w3.org/2000/svg" xmlns:serif="http://www.serif.com/" xmlns:xlink="http://www.w3.org/1999/xlink" ><path d="M45.5 48H30.1c-.8 0-1.5-.7-1.5-1.5V34.2c0-2.6-2.1-4.6-4.6-4.6s-4.6 2.1-4.6 4.6v12.3c0 .8-.7 1.5-1.5 1.5H2.5c-.8 0-1.5-.7-1.5-1.5V23c0-.4.2-.8.4-1.1L22.9.4c.6-.6 1.6-.6 2.1 0l21.5 21.5c.3.3.4.7.4 1.1v23.5c.1.8-.6 1.5-1.4 1.5z"></path></svg>
