<?xml version="1.0" ?><!DOCTYPE svg  PUBLIC '-//W3C//DTD SVG 1.1//EN'  'http://www.w3.org/Graphics/SVG/1.1/DTD/svg11.dtd'><svg  aria-label="Posts" class="_8-yf5 " fill="#8e8e8e" height="12" viewBox="0 0 48 48" width="12" xml:space="preserve" xmlns="http://www.w3.org/2000/svg" xmlns:serif="http://www.serif.com/" xmlns:xlink="http://www.w3.org/1999/xlink"><path clip-rule="evenodd" d="M45 1.5H3c-.8 0-1.5.7-1.5 1.5v42c0 .8.7 1.5 1.5 1.5h42c.8 0 1.5-.7 1.5-1.5V3c0-.8-.7-1.5-1.5-1.5zm-40.5 3h11v11h-11v-11zm0 14h11v11h-11v-11zm11 25h-11v-11h11v11zm14 0h-11v-11h11v11zm0-14h-11v-11h11v11zm0-14h-11v-11h11v11zm14 28h-11v-11h11v11zm0-14h-11v-11h11v11zm0-14h-11v-11h11v11z" fill-rule="evenodd"></path></svg>