<?xml version="1.0" ?><!DOCTYPE svg  PUBLIC '-//W3C//DTD SVG 1.1//EN'  'http://www.w3.org/Graphics/SVG/1.1/DTD/svg11.dtd'><svg aria-label="Video has no audio." class="_8-yf5 " fill="#ffffff" height="16" viewBox="0 0 48 48" width="16" xml:space="preserve" xmlns="http://www.w3.org/2000/svg" xmlns:serif="http://www.serif.com/" xmlns:xlink="http://www.w3.org/1999/xlink"><path clip-rule="evenodd" d="M42.9 24l4.6 4.6c.6.6.6 1.6 0 2.2l-1.4 1.4c-.6.6-1.6.6-2.2 0l-4.6-4.6-4.6 4.6c-.6.6-1.6.6-2.2 0l-1.4-1.4c-.6-.6-.6-1.6 0-2.2l4.6-4.6-4.6-4.6c-.6-.6-.6-1.6 0-2.2l1.4-1.4c.6-.6 1.6-.6 2.2 0l4.6 4.6 4.6-4.6c.6-.6 1.6-.6 2.2 0l1.4 1.4c.6.6.6 1.6 0 2.2L42.9 24zM24.1 47.6L11.3 34.7H1.6C.7 34.7 0 34 0 33.2V14.8c0-.8.7-1.5 1.5-1.5h9.7L24.1.4c.9-.9 2.5-.3 2.5 1v45.1c0 1.3-1.6 2-2.5 1.1z" fill-rule="evenodd"></path></svg>