<?xml version="1.0" ?><!DOCTYPE svg  PUBLIC '-//W3C//DTD SVG 1.1//EN'  'http://www.w3.org/Graphics/SVG/1.1/DTD/svg11.dtd'><svg aria-label="Audio is playing" class="_8-yf5 " fill="#ffffff" height="16" viewBox="0 0 48 48" width="16" xml:space="preserve" xmlns="http://www.w3.org/2000/svg" xmlns:serif="http://www.serif.com/" xmlns:xlink="http://www.w3.org/1999/xlink"><path clip-rule="evenodd" d="M40.8 6.6c-.6-.6-1.6-.6-2.2 0L37.2 8c-.6.6-.6 1.6 0 2.2 0 0 5.7 5 5.7 13.8s-5.7 13.8-5.7 13.8c-.6.6-.6 1.6 0 2.2l1.4 1.4c.6.6 1.6.6 2.2 0 0 0 7.2-6 7.2-17.4S40.8 6.6 40.8 6.6zm-7.1 7.1c-.6-.6-1.6-.6-2.2 0l-1.4 1.4c-.6.6-.6 1.6 0 2.2 0 0 2.6 2 2.6 6.7s-2.6 6.7-2.6 6.7c-.6.6-.6 1.6 0 2.2l1.4 1.4c.6.6 1.6.6 2.2 0 0 0 4.1-3.5 4.1-10.3s-4.1-10.3-4.1-10.3zM23.1.4L10.2 13.3H1.5c-.8 0-1.5.7-1.5 1.5v18.4c0 .8.7 1.5 1.5 1.5h8.7l12.9 12.9c.9.9 2.5.3 2.5-1V1.4C25.5.2 24-.5 23.1.4z" fill-rule="evenodd"></path></svg>